<svg width="360" height="296" viewBox="0 0 360 296" fill="none" xmlns="http://www.w3.org/2000/svg">
<path fill-rule="evenodd" clip-rule="evenodd" d="M360 0H0V211C0 228.673 14.3269 243 32 243H303.998H327.998C345.629 243 359.93 257.259 359.998 274.874V243H360V0Z" fill="#FABE00"/>
<mask id="mask0_144_9186" style="mask-type:alpha" maskUnits="userSpaceOnUse" x="0" y="0" width="360" height="296">
<path fill-rule="evenodd" clip-rule="evenodd" d="M360 0H0V211C0 228.673 14.3269 243 32 243H329.551C346.502 243.811 359.997 257.811 359.997 274.963V295.959H359.998V243H360V0Z" fill="#FFD858"/>
</mask>
<g mask="url(#mask0_144_9186)">
<ellipse cx="350.5" cy="58.5" rx="104.5" ry="100.5" fill="url(#paint0_linear_144_9186)"/>
<circle cx="67" cy="97" r="147" fill="url(#paint1_linear_144_9186)" fill-opacity="0.6"/>
<path d="M429 158.5C429 232.782 368.782 293 294.5 293C220.218 293 160 232.782 160 158.5C160 84.2177 220.218 24 294.5 24C368.782 24 429 84.2177 429 158.5Z" fill="#FFDD6E" fill-opacity="0.2"/>
</g>
<defs>
<linearGradient id="paint0_linear_144_9186" x1="377.285" y1="128.397" x2="378.799" y2="4.84968" gradientUnits="userSpaceOnUse">
<stop stop-color="#FFD445"/>
<stop offset="1" stop-color="#FAB200" stop-opacity="0"/>
</linearGradient>
<linearGradient id="paint1_linear_144_9186" x1="51.5" y1="30" x2="80.5" y2="97" gradientUnits="userSpaceOnUse">
<stop offset="0.00487708" stop-color="#FAB200" stop-opacity="0"/>
<stop offset="1" stop-color="#FFD445"/>
</linearGradient>
</defs>
</svg>
